<?xml version="1.0" encoding="utf-8"?>
<svg xmlns="http://www.w3.org/2000/svg" viewBox="255.826 181.9706 120.6172 27.5528" width="120.617px" height="27.5528px" preserveAspectRatio="none"><mask id="mask0_112_609" style="mask-type:luminance" maskUnits="userSpaceOnUse" x="260" y="5" width="17" height="16"><path fill-rule="evenodd" clip-rule="evenodd" d="M260.871 5.86206H276.616V20.3085H260.871V5.86206Z" fill="white"/></mask><mask id="mask1_112_609" style="mask-type:luminance" maskUnits="userSpaceOnUse" x="196" y="0" width="15" height="28"><path fill-rule="evenodd" clip-rule="evenodd" d="M196.138 0.223877H210.292V27.7761H196.138V0.223877Z" fill="white"/></mask><g id="object-9" transform="matrix(1, 0, 0, 1, 0, -1.4210854715202004e-14)"><path d="M 255.827 186.746 L 255.827 204.746" stroke="#2CB34A" id="object-0" style="transform-box: fill-box; transform-origin: 50% 50%;" transform="matrix(1, 0, 0, 1, -0.001035, 0)"/><path fill-rule="evenodd" clip-rule="evenodd" d="M 293.822 193.826 L 293.822 201.823 L 288.894 201.823 L 288.894 194.625 C 288.894 192.614 288.063 191.762 286.767 191.762 C 285.339 191.762 284.301 192.717 284.301 194.884 L 284.301 201.823 L 279.373 201.823 L 279.373 194.625 C 279.373 192.614 278.569 191.762 277.247 191.762 C 275.794 191.762 274.756 192.717 274.756 194.884 L 274.756 201.823 L 269.827 201.823 L 269.827 187.842 L 274.522 187.842 L 274.522 189.313 C 275.586 188.177 277.064 187.609 278.725 187.609 C 280.644 187.609 282.278 188.306 283.265 189.802 C 284.38 188.409 286.117 187.609 288.141 187.609 C 291.409 187.609 293.822 189.492 293.822 193.826 Z" fill="#2EA836" id="object-1"/><path fill-rule="evenodd" clip-rule="evenodd" d="M 323.474 194.832 C 323.474 192.717 322.177 191.504 320.517 191.504 C 318.857 191.504 317.56 192.717 317.56 194.832 C 317.56 196.948 318.857 198.159 320.517 198.159 C 322.177 198.159 323.474 196.948 323.474 194.832 Z M 328.455 194.832 C 328.455 199.269 325.368 202.055 321.554 202.055 C 319.921 202.055 318.598 201.564 317.638 200.585 L 317.638 206.827 L 312.71 206.827 L 312.71 187.842 L 317.404 187.842 L 317.404 189.234 C 318.338 188.126 319.714 187.609 321.554 187.609 C 325.368 187.609 328.455 190.395 328.455 194.832 Z" fill="#2EA836" id="object-2"/><path fill-rule="evenodd" clip-rule="evenodd" d="M 334.732 193.49 L 340.491 193.49 C 340.231 192.02 339.142 191.092 337.612 191.092 C 336.081 191.092 335.018 192.02 334.732 193.49 Z M 345.03 196.071 L 334.809 196.071 C 335.224 197.489 336.444 198.315 338.26 198.315 C 339.634 198.315 340.542 197.928 341.502 197.102 L 344.097 199.785 C 342.747 201.281 340.776 202.055 338.104 202.055 C 333.098 202.055 329.856 198.986 329.856 194.806 C 329.856 190.602 333.15 187.609 337.585 187.609 C 341.735 187.609 345.108 190.241 345.108 194.858 C 345.108 195.22 345.056 195.684 345.03 196.071 Z" fill="#2EA836" id="object-3"/><path fill-rule="evenodd" clip-rule="evenodd" d="M 346.275 200.611 L 347.754 197.258 C 349.051 198.056 350.945 198.547 352.657 198.547 C 354.317 198.547 354.861 198.185 354.861 197.592 C 354.861 195.709 346.561 197.85 346.561 192.253 C 346.561 189.621 348.999 187.609 353.409 187.609 C 355.381 187.609 357.56 188.022 358.961 188.796 L 357.482 192.123 C 356.081 191.349 354.68 191.093 353.435 191.093 C 351.775 191.093 351.178 191.555 351.178 192.072 C 351.178 194.007 359.453 191.917 359.453 197.463 C 359.453 200.043 357.066 202.055 352.501 202.055 C 350.114 202.055 347.65 201.461 346.275 200.611 Z" fill="#2EA836" id="object-4"/><g mask="url(#mask0_112_609)" transform="matrix(1, 0, 0, 1, 99.8271, 181.747)" id="object-5"><path fill-rule="evenodd" clip-rule="evenodd" d="M271.766 13.0589C271.766 10.9433 270.468 9.75754 268.809 9.75754C267.147 9.75754 265.851 10.9433 265.851 13.0589C265.851 15.2004 267.147 16.4126 268.809 16.4126C270.468 16.4126 271.766 15.2004 271.766 13.0589ZM276.616 6.0956V20.076H271.921V18.6825C270.987 19.7921 269.612 20.3085 267.77 20.3085C263.957 20.3085 260.871 17.5216 260.871 13.0589C260.871 8.62256 263.957 5.86206 267.77 5.86206C269.405 5.86206 270.727 6.3267 271.688 7.30632V6.0956H276.616Z" fill="#2EA836"/></g><path fill-rule="evenodd" clip-rule="evenodd" d="M 294.884 195.375 C 297.72 195.866 299.964 192.489 299.964 192.489 C 302.231 196.009 304.065 193.175 304.065 193.175 C 304.065 193.175 302.513 195.993 297.124 195.881 C 297.124 195.881 295.237 195.495 294.884 195.375 Z" fill="#A24A3F" id="object-6"/><path fill-rule="evenodd" clip-rule="evenodd" d="M 305.515 189.485 C 305.515 189.485 301.521 197.346 294.883 195.375 C 294.883 195.375 307.151 199.136 311.648 192.426 L 305.515 189.485 Z" fill="#DD383A" id="object-7"/><g mask="url(#mask1_112_609)" transform="matrix(1, 0, 0, 1, 99.8271, 181.747)" id="object-8"><path fill-rule="evenodd" clip-rule="evenodd" d="M209.49 13.3807V24.3861H196.94L196.94 2.45158H209.49V9.10024L210.292 9.56048V2.26885C210.292 1.13924 209.502 0.223633 208.528 0.223633H197.901C196.927 0.223633 196.139 1.13924 196.139 2.26885L196.138 25.7321C196.138 26.8608 196.927 27.7764 197.901 27.7764H208.528C209.502 27.7764 210.292 26.8608 210.292 25.7321V12.8301C210.028 13.025 209.719 13.2317 209.49 13.3807Z" fill="#B7BDAD"/></g></g></svg>