<svg width="277" height="28" viewBox="0 0 277 28" fill="none" xmlns="http://www.w3.org/2000/svg">
<path d="M1.826 22V6.6H8.822C10.494 6.6 11.968 6.92267 13.244 7.568C14.52 8.19867 15.5173 9.086 16.236 10.23C16.9547 11.374 17.314 12.7307 17.314 14.3C17.314 15.8547 16.9547 17.2113 16.236 18.37C15.5173 19.514 14.52 20.4087 13.244 21.054C11.968 21.6847 10.494 22 8.822 22H1.826ZM5.39 19.074H8.646C9.67267 19.074 10.56 18.8833 11.308 18.502C12.0707 18.106 12.6573 17.5487 13.068 16.83C13.4933 16.1113 13.706 15.268 13.706 14.3C13.706 13.3173 13.4933 12.474 13.068 11.77C12.6573 11.0513 12.0707 10.5013 11.308 10.12C10.56 9.724 9.67267 9.526 8.646 9.526H5.39V19.074ZM23.2798 12.804H30.6938V15.576H23.2798V12.804ZM23.5438 19.14H31.9258V22H20.0018V6.6H31.6398V9.46H23.5438V19.14ZM39.1667 22L32.5227 6.6H36.3727L42.1807 20.24H39.9147L45.8107 6.6H49.3527L42.6867 22H39.1667ZM53.9165 12.804H61.3305V15.576H53.9165V12.804ZM54.1805 19.14H62.5625V22H50.6385V6.6H62.2765V9.46H54.1805V19.14ZM65.3983 22V6.6H68.9623V19.096H76.6843V22H65.3983ZM85.8978 22.264C84.6805 22.264 83.5511 22.066 82.5098 21.67C81.4831 21.274 80.5885 20.7167 79.8258 19.998C79.0778 19.2793 78.4911 18.436 78.0658 17.468C77.6551 16.5 77.4498 15.444 77.4498 14.3C77.4498 13.156 77.6551 12.1 78.0658 11.132C78.4911 10.164 79.0851 9.32067 79.8478 8.602C80.6105 7.88333 81.5051 7.326 82.5318 6.93C83.5585 6.534 84.6731 6.336 85.8758 6.336C87.0931 6.336 88.2078 6.534 89.2198 6.93C90.2465 7.326 91.1338 7.88333 91.8818 8.602C92.6445 9.32067 93.2385 10.164 93.6638 11.132C94.0891 12.0853 94.3018 13.1413 94.3018 14.3C94.3018 15.444 94.0891 16.5073 93.6638 17.49C93.2385 18.458 92.6445 19.3013 91.8818 20.02C91.1338 20.724 90.2465 21.274 89.2198 21.67C88.2078 22.066 87.1005 22.264 85.8978 22.264ZM85.8758 19.228C86.5651 19.228 87.1958 19.1107 87.7678 18.876C88.3545 18.6413 88.8678 18.304 89.3078 17.864C89.7478 17.424 90.0851 16.9033 90.3198 16.302C90.5691 15.7007 90.6938 15.0333 90.6938 14.3C90.6938 13.5667 90.5691 12.8993 90.3198 12.298C90.0851 11.6967 89.7478 11.176 89.3078 10.736C88.8825 10.296 88.3765 9.95867 87.7898 9.724C87.2031 9.48933 86.5651 9.372 85.8758 9.372C85.1865 9.372 84.5485 9.48933 83.9618 9.724C83.3898 9.95867 82.8838 10.296 82.4438 10.736C82.0038 11.176 81.6591 11.6967 81.4098 12.298C81.1751 12.8993 81.0578 13.5667 81.0578 14.3C81.0578 15.0187 81.1751 15.686 81.4098 16.302C81.6591 16.9033 81.9965 17.424 82.4218 17.864C82.8618 18.304 83.3751 18.6413 83.9618 18.876C84.5485 19.1107 85.1865 19.228 85.8758 19.228ZM96.9803 22V6.6H103.646C105.025 6.6 106.213 6.82733 107.21 7.282C108.208 7.722 108.978 8.36 109.52 9.196C110.063 10.032 110.334 11.0293 110.334 12.188C110.334 13.332 110.063 14.322 109.52 15.158C108.978 15.994 108.208 16.6393 107.21 17.094C106.213 17.534 105.025 17.754 103.646 17.754H98.9603L100.544 16.148V22H96.9803ZM100.544 16.544L98.9603 14.85H103.448C104.548 14.85 105.37 14.6153 105.912 14.146C106.455 13.6767 106.726 13.024 106.726 12.188C106.726 11.3373 106.455 10.6773 105.912 10.208C105.37 9.73867 104.548 9.504 103.448 9.504H98.9603L100.544 7.81V16.544ZM116.157 12.804H123.571V15.576H116.157V12.804ZM116.421 19.14H124.803V22H112.879V6.6H124.517V9.46H116.421V19.14ZM127.639 22V6.6H134.305C135.683 6.6 136.871 6.82733 137.869 7.282C138.866 7.722 139.636 8.36 140.179 9.196C140.721 10.032 140.993 11.0293 140.993 12.188C140.993 13.332 140.721 14.322 140.179 15.158C139.636 15.9793 138.866 16.61 137.869 17.05C136.871 17.49 135.683 17.71 134.305 17.71H129.619L131.203 16.148V22H127.639ZM137.428 22L133.579 16.412H137.385L141.279 22H137.428ZM131.203 16.544L129.619 14.872H134.107C135.207 14.872 136.028 14.6373 136.571 14.168C137.113 13.684 137.385 13.024 137.385 12.188C137.385 11.3373 137.113 10.6773 136.571 10.208C136.028 9.73867 135.207 9.504 134.107 9.504H129.619L131.203 7.81V16.544Z" fill="#2CB34A"/>
<path d="M156 5L156 23" stroke="#2CB34A"/>
<path fill-rule="evenodd" clip-rule="evenodd" d="M193.995 12.0791V20.0762H189.067V12.8784C189.067 10.8674 188.236 10.0153 186.94 10.0153C185.512 10.0153 184.474 10.97 184.474 13.1368V20.0762H179.546V12.8784C179.546 10.8674 178.742 10.0153 177.42 10.0153C175.967 10.0153 174.929 10.97 174.929 13.1368V20.0762H170V6.09536H174.695V7.56551C175.759 6.43004 177.237 5.8623 178.898 5.8623C180.817 5.8623 182.451 6.55854 183.438 8.05507C184.553 6.66212 186.29 5.8623 188.314 5.8623C191.582 5.8623 193.995 7.74531 193.995 12.0791Z" fill="#2EA836"/>
<path fill-rule="evenodd" clip-rule="evenodd" d="M223.647 13.085C223.647 10.97 222.35 9.7573 220.69 9.7573C219.03 9.7573 217.733 10.97 217.733 13.085C217.733 15.2006 219.03 16.4123 220.69 16.4123C222.35 16.4123 223.647 15.2006 223.647 13.085ZM228.628 13.085C228.628 17.5224 225.541 20.3083 221.727 20.3083C220.094 20.3083 218.771 19.8173 217.811 18.8381V25.0803H212.883V6.09536H217.577V7.48734C218.511 6.37923 219.887 5.8623 221.727 5.8623C225.541 5.8623 228.628 8.64773 228.628 13.085Z" fill="#2EA836"/>
<path fill-rule="evenodd" clip-rule="evenodd" d="M234.905 11.7434H240.664C240.404 10.2728 239.315 9.34542 237.785 9.34542C236.254 9.34542 235.191 10.2728 234.905 11.7434ZM245.203 14.3241H234.982C235.397 15.742 236.617 16.5682 238.433 16.5682C239.807 16.5682 240.715 16.1812 241.675 15.3545L244.27 18.0378C242.92 19.5344 240.949 20.3083 238.277 20.3083C233.271 20.3083 230.029 17.2385 230.029 13.0592C230.029 8.85488 233.323 5.8623 237.758 5.8623C241.908 5.8623 245.281 8.49382 245.281 13.1109C245.281 13.4725 245.229 13.9367 245.203 14.3241Z" fill="#2EA836"/>
<path fill-rule="evenodd" clip-rule="evenodd" d="M246.448 18.8638L247.927 15.5106C249.224 16.309 251.118 16.7995 252.83 16.7995C254.49 16.7995 255.034 16.4384 255.034 15.8453C255.034 13.9618 246.734 16.1028 246.734 10.5056C246.734 7.87405 249.172 5.86206 253.582 5.86206C255.554 5.86206 257.733 6.27491 259.134 7.04932L257.655 10.3761C256.254 9.60217 254.853 9.34567 253.608 9.34567C251.948 9.34567 251.351 9.80836 251.351 10.3248C251.351 12.2596 259.626 10.1699 259.626 15.7163C259.626 18.296 257.239 20.308 252.674 20.308C250.287 20.308 247.823 19.7139 246.448 18.8638Z" fill="#2EA836"/>
<mask id="mask0_112_609" style="mask-type:luminance" maskUnits="userSpaceOnUse" x="260" y="5" width="17" height="16">
<path fill-rule="evenodd" clip-rule="evenodd" d="M260.871 5.86206H276.616V20.3085H260.871V5.86206Z" fill="white"/>
</mask>
<g mask="url(#mask0_112_609)">
<path fill-rule="evenodd" clip-rule="evenodd" d="M271.766 13.0589C271.766 10.9433 270.468 9.75754 268.809 9.75754C267.147 9.75754 265.851 10.9433 265.851 13.0589C265.851 15.2004 267.147 16.4126 268.809 16.4126C270.468 16.4126 271.766 15.2004 271.766 13.0589ZM276.616 6.0956V20.076H271.921V18.6825C270.987 19.7921 269.612 20.3085 267.77 20.3085C263.957 20.3085 260.871 17.5216 260.871 13.0589C260.871 8.62256 263.957 5.86206 267.77 5.86206C269.405 5.86206 270.727 6.3267 271.688 7.30632V6.0956H276.616Z" fill="#2EA836"/>
</g>
<path fill-rule="evenodd" clip-rule="evenodd" d="M195.057 13.6283C197.893 14.1188 200.137 10.7417 200.137 10.7417C202.404 14.2624 204.238 11.4282 204.238 11.4282C204.238 11.4282 202.686 14.2463 197.297 14.1335C197.297 14.1335 195.41 13.748 195.057 13.6283Z" fill="#A24A3F"/>
<path fill-rule="evenodd" clip-rule="evenodd" d="M205.688 7.73755C205.688 7.73755 201.694 15.5994 195.056 13.6284C195.056 13.6284 207.324 17.389 211.821 10.6788L205.688 7.73755Z" fill="#DD383A"/>
<mask id="mask1_112_609" style="mask-type:luminance" maskUnits="userSpaceOnUse" x="196" y="0" width="15" height="28">
<path fill-rule="evenodd" clip-rule="evenodd" d="M196.138 0.223877H210.292V27.7761H196.138V0.223877Z" fill="white"/>
</mask>
<g mask="url(#mask1_112_609)">
<path fill-rule="evenodd" clip-rule="evenodd" d="M209.49 13.3807V24.3861H196.94L196.94 2.45158H209.49V9.10024L210.292 9.56048V2.26885C210.292 1.13924 209.502 0.223633 208.528 0.223633H197.901C196.927 0.223633 196.139 1.13924 196.139 2.26885L196.138 25.7321C196.138 26.8608 196.927 27.7764 197.901 27.7764H208.528C209.502 27.7764 210.292 26.8608 210.292 25.7321V12.8301C210.028 13.025 209.719 13.2317 209.49 13.3807Z" fill="#B7BDAD"/>
</g>
</svg>
